HIERARCHY
ROOT joint_0
{
	OFFSET 0.000000 0.000000 0.000000
	CHANNELS 6 Xposition Yposition Zposition Zrotation Yrotation Xrotation 
	JOINT joint_1
	{
		OFFSET 14.113007 -2.961990 123.953979
		CHANNELS 3 Zrotation Yrotation Xrotation
		JOINT joint_2
		{
			OFFSET 0.764000 -2.434006 113.871948
			CHANNELS 3 Zrotation Yrotation Xrotation
			JOINT joint_3
			{
				OFFSET 0.186996 -2.169998 113.753052
				CHANNELS 3 Zrotation Yrotation Xrotation
				JOINT joint_4
				{
					OFFSET 16.096001 -2.720001 160.853027
					CHANNELS 3 Zrotation Yrotation Xrotation
					JOINT joint_5
					{
						OFFSET 34.392006 -0.188995 92.567017
						CHANNELS 3 Zrotation Yrotation Xrotation
						End Site
						{
							OFFSET 0.000000 0.000000 0.000000
						}
					}
				}
				JOINT joint_6
				{
					OFFSET 9.183998 -36.684006 89.597046
					CHANNELS 3 Zrotation Yrotation Xrotation
					JOINT joint_7
					{
						OFFSET 0.486000 -164.365997 -28.984009
						CHANNELS 3 Zrotation Yrotation Xrotation
						JOINT joint_8
						{
							OFFSET 38.899002 -34.967010 -291.651978
							CHANNELS 3 Zrotation Yrotation Xrotation
							JOINT joint_9
							{
								OFFSET 41.714005 -45.890991 -258.857056
								CHANNELS 3 Zrotation Yrotation Xrotation
								End Site
								{
									OFFSET 0.000000 0.000000 0.000000
								}
							}
						}
					}
				}
				JOINT joint_10
				{
					OFFSET 8.867004 33.650002 90.817993
					CHANNELS 3 Zrotation Yrotation Xrotation
					JOINT joint_11
					{
						OFFSET 0.018997 164.299999 -29.368042
						CHANNELS 3 Zrotation Yrotation Xrotation
						JOINT joint_12
						{
							OFFSET 29.440994 30.887997 -293.216919
							CHANNELS 3 Zrotation Yrotation Xrotation
							JOINT joint_13
							{
								OFFSET 46.174011 54.490005 -256.422058
								CHANNELS 3 Zrotation Yrotation Xrotation
								End Site
								{
									OFFSET 0.000000 0.000000 0.000000
								}
							}
						}
					}
				}
			}
		}
	}
	JOINT joint_14
	{
		OFFSET -2.264000 -89.466995 -116.150024
		CHANNELS 3 Zrotation Yrotation Xrotation
		JOINT joint_15
		{
			OFFSET -16.400993 -17.452988 -493.781982
			CHANNELS 3 Zrotation Yrotation Xrotation
			JOINT joint_16
			{
				OFFSET -50.497004 -13.404022 -424.754013
				CHANNELS 3 Zrotation Yrotation Xrotation
				JOINT joint_17
				{
					OFFSET 198.546007 -19.341003 -89.309000
					CHANNELS 3 Zrotation Yrotation Xrotation
					End Site
					{
						OFFSET 0.000000 0.000000 0.000000
					}
				}
			}
		}
	}
	JOINT joint_18
	{
		OFFSET -0.867996 96.016006 -110.817993
		CHANNELS 3 Zrotation Yrotation Xrotation
		JOINT joint_19
		{
			OFFSET -10.130997 24.658998 -493.645020
			CHANNELS 3 Zrotation Yrotation Xrotation
			JOINT joint_20
			{
				OFFSET -48.871004 19.434999 -424.714005
				CHANNELS 3 Zrotation Yrotation Xrotation
				JOINT joint_21
				{
					OFFSET 195.579996 24.926001 -94.327003
					CHANNELS 3 Zrotation Yrotation Xrotation
					End Site
					{
						OFFSET 0.000000 0.000000 0.000000
					}
				}
			}
		}
	}
}
MOTION
Frames: 10
Frame Time: 0.016667
146.521000 -148.717000 1155.498050 -0.231034 0.971601 -0.267502 -0.157054 0.103293 -0.127214 -0.160374 -0.005290 0.015748 -0.159755 0.024321 -0.017145 -0.005425 -1.775141 0.011219 0.000000 0.000000 0.000000 0.352938 -1.225899 0.513045 0.083348 -1.179107 0.284651 -0.477424 0.522994 -2.394471 0.000000 0.000000 0.000000 -1.949076 -2.175168 0.200991 -0.445119 -1.903362 0.579769 -0.642622 -2.733598 -0.344682 0.000000 0.000000 0.000000 3.299153 -0.262220 0.374492 3.234437 1.327839 0.611536 3.097724 2.139371 1.600594 0.000000 0.000000 0.000000 0.904862 0.130292 -0.250029 0.925225 0.672456 0.077833 0.988509 2.305621 0.182500 0.000000 0.000000 0.000000 
147.522000 -148.798000 1155.814940 -0.257871 1.006671 -0.264554 -0.138602 0.107365 -0.168814 -0.142401 -0.006630 0.029090 -0.141761 0.022327 -0.024994 -0.004183 -1.804805 0.008083 0.000000 0.000000 0.000000 0.340748 -1.274148 0.505070 0.122655 -1.236139 0.371387 -0.397264 0.250432 -2.195369 0.000000 0.000000 0.000000 -1.969233 -2.248297 0.193614 -0.476570 -1.978039 0.454221 -0.665142 -2.949772 -0.214222 0.000000 0.000000 0.000000 3.318618 -0.233617 0.367458 3.256245 1.281003 0.613189 3.113683 2.222672 1.615842 0.000000 0.000000 0.000000 0.890901 0.135483 -0.234163 0.912639 0.694931 0.068551 0.977486 2.355788 0.170765 0.000000 0.000000 0.000000 
148.409000 -148.845990 1156.142940 -0.274822 1.050062 -0.262981 -0.127811 0.124628 -0.198607 -0.132283 -0.008539 0.038231 -0.131577 0.022478 -0.031771 -0.004084 -1.894322 0.007876 0.000000 0.000000 0.000000 0.318078 -1.300092 0.488253 0.162801 -1.272967 0.413673 -0.277971 -0.109678 -1.849876 0.000000 0.000000 0.000000 -1.962694 -2.273562 0.203337 -0.515957 -2.011024 0.351351 -0.718094 -3.202647 -0.212408 0.000000 0.000000 0.000000 3.334429 -0.263294 0.353080 3.268380 1.321548 0.634212 3.126735 2.282438 1.627456 0.000000 0.000000 0.000000 0.884624 0.116974 -0.224440 0.909328 0.728622 0.061049 0.974734 2.401791 0.163550 0.000000 0.000000 0.000000 
149.199010 -148.869000 1156.465940 -0.285808 1.096767 -0.260806 -0.122363 0.149489 -0.222796 -0.127618 -0.009831 0.046661 -0.126877 0.021893 -0.037394 -0.004007 -2.020342 0.007599 0.000000 0.000000 0.000000 0.287514 -1.304560 0.461959 0.204120 -1.289964 0.430703 -0.129876 -0.537750 -1.401204 0.000000 0.000000 0.000000 -1.932718 -2.257306 0.223896 -0.558910 -2.007353 0.256909 -0.787811 -3.472675 -0.286167 0.000000 0.000000 0.000000 3.347710 -0.324747 0.332982 3.274655 1.409708 0.665732 3.137813 2.325723 1.636558 0.000000 0.000000 0.000000 0.881740 0.088753 -0.219879 0.909710 0.761249 0.055019 0.975574 2.445774 0.158327 0.000000 0.000000 0.000000 
149.906010 -148.860990 1156.735960 -0.292814 1.131247 -0.258715 -0.120928 0.178265 -0.238006 -0.127009 -0.012891 0.051725 -0.126166 0.023349 -0.041859 -0.005916 -2.121994 0.012622 0.000000 0.000000 0.000000 0.261249 -1.304625 0.445728 0.241464 -1.301134 0.446954 0.005899 -0.924573 -0.984508 0.000000 0.000000 0.000000 -1.909577 -2.217939 0.239959 -0.595086 -1.978256 0.179398 -0.852536 -3.696359 -0.388148 0.000000 0.000000 0.000000 3.358539 -0.375481 0.314228 3.278986 1.498681 0.693901 3.147198 2.356936 1.643727 0.000000 0.000000 0.000000 0.876823 0.065193 -0.217985 0.908212 0.804021 0.052228 0.973897 2.478215 0.153362 0.000000 0.000000 0.000000 
150.517000 -148.811000 1156.937010 -0.293894 1.146791 -0.258080 -0.125521 0.213839 -0.242018 -0.132495 -0.016536 0.053223 -0.131506 0.027129 -0.043075 -0.008808 -2.185942 0.020282 0.000000 0.000000 0.000000 0.244134 -1.306136 0.440494 0.274198 -1.311334 0.469807 0.120554 -1.246873 -0.628341 0.000000 0.000000 0.000000 -1.906159 -2.154155 0.246762 -0.623466 -1.919942 0.125621 -0.912536 -3.875178 -0.518452 0.000000 0.000000 0.000000 3.366917 -0.404010 0.299528 3.282280 1.579680 0.715339 3.154975 2.377446 1.649144 0.000000 0.000000 0.000000 0.865518 0.048280 -0.217359 0.900889 0.867637 0.055163 0.965495 2.494067 0.147270 0.000000 0.000000 0.000000 
151.046010 -148.729000 1157.083980 -0.290452 1.149950 -0.257535 -0.134005 0.253101 -0.236425 -0.141883 -0.021299 0.049817 -0.140709 0.032454 -0.041360 -0.013494 -2.225624 0.032728 0.000000 0.000000 0.000000 0.230288 -1.302935 0.442622 0.303148 -1.315591 0.494158 0.222807 -1.527232 -0.303167 0.000000 0.000000 0.000000 -1.910672 -2.067173 0.248302 -0.645061 -1.835947 0.088303 -0.967644 -4.008353 -0.676805 0.000000 0.000000 0.000000 3.372773 -0.421283 0.286143 3.283588 1.661042 0.733383 3.160997 2.385629 1.652578 0.000000 0.000000 0.000000 0.851902 0.036223 -0.219466 0.891388 0.941355 0.061637 0.954320 2.498191 0.141338 0.000000 0.000000 0.000000 
151.545000 -148.653000 1157.176030 -0.286831 1.145867 -0.255286 -0.141517 0.279345 -0.228631 -0.149967 -0.024983 0.044938 -0.148622 0.038354 -0.038794 -0.019530 -2.225309 0.048729 0.000000 0.000000 0.000000 0.220832 -1.295122 0.458802 0.326009 -1.313386 0.531753 0.297229 -1.723585 -0.058147 0.000000 0.000000 0.000000 -1.906738 -1.980502 0.238702 -0.652774 -1.751504 0.055074 -0.994816 -4.024476 -0.814849 0.000000 0.000000 0.000000 3.375435 -0.418999 0.276567 3.283592 1.720139 0.742520 3.164389 2.382591 1.653744 0.000000 0.000000 0.000000 0.840818 0.035827 -0.223329 0.883401 1.006550 0.066624 0.944253 2.493098 0.137114 0.000000 0.000000 0.000000 
152.039000 -148.595000 1157.204960 -0.284852 1.132439 -0.250124 -0.146163 0.287376 -0.221926 -0.154763 -0.027531 0.039556 -0.153340 0.040824 -0.034221 -0.027935 -2.162540 0.071042 0.000000 0.000000 0.000000 0.213521 -1.283276 0.493051 0.341600 -1.305477 0.590926 0.334304 -1.808471 0.078088 0.000000 0.000000 0.000000 -1.890710 -1.901939 0.210469 -0.642444 -1.674329 0.026004 -0.983710 -3.879621 -0.924131 0.000000 0.000000 0.000000 3.374247 -0.383518 0.273655 3.283124 1.737754 0.735635 3.164365 2.368433 1.652309 0.000000 0.000000 0.000000 0.834261 0.057232 -0.229419 0.877808 1.050808 0.069001 0.936656 2.481031 0.134970 0.000000 0.000000 0.000000 
152.502000 -148.541000 1157.177980 -0.282224 1.111510 -0.243236 -0.149435 0.283880 -0.211995 -0.157900 -0.030443 0.031464 -0.156378 0.044229 -0.028424 -0.038061 -2.060143 0.097976 0.000000 0.000000 0.000000 0.208473 -1.266736 0.539720 0.351326 -1.291436 0.665044 0.343391 -1.808406 0.134430 0.000000 0.000000 0.000000 -1.868499 -1.823774 0.170591 -0.618135 -1.596306 0.001964 -0.944757 -3.617636 -1.013044 0.000000 0.000000 0.000000 3.369738 -0.328193 0.274319 3.281232 1.733060 0.719934 3.161587 2.342803 1.648527 0.000000 0.000000 0.000000 0.830104 0.090531 -0.237501 0.873576 1.086554 0.070158 0.930045 2.459675 0.134485 0.000000 0.000000 0.000000 
